<svg width="43" height="62" viewBox="0 0 43 62" fill="none" xmlns="http://www.w3.org/2000/svg">
<g filter="url(#filter0_f_3_536)">
<path d="M29.4009 7.19977C29.0145 7.19977 28.6576 7.43009 28.4734 7.80282C27.4217 9.929 25.1624 11.5598 23.1402 11.5598C21.3249 11.5598 20.2619 10.246 20.4053 8.44055C20.4584 7.77187 19.9647 7.20101 19.3513 7.20101H18.3459C17.911 7.20101 17.5213 7.49201 17.362 7.93532L7.07409 36.6232C6.80184 37.3823 7.31358 38.2033 8.05804 38.2033H8.88947C9.27582 38.2033 9.63279 37.9729 9.81693 37.6002C10.8687 35.474 13.128 33.8432 15.1501 33.8432C16.9655 33.8432 18.0285 35.157 17.885 36.9625C17.8319 37.6312 18.3256 38.202 18.939 38.202H19.9444C20.3793 38.202 20.7691 37.911 20.9284 37.4677L31.2163 8.77985C31.4885 8.02077 30.9768 7.19977 30.2323 7.19977H29.4009Z" fill="#E6E6E6"/>
<path d="M15.166 53.5335L24.0101 28.8726C24.1694 28.4293 24.5592 28.1383 24.9941 28.1383H34.167C35.0538 28.1383 35.5463 29.2615 34.9928 30.0193L16.9768 54.6802C16.2199 55.7166 14.7243 54.7693 15.1671 53.5335H15.166Z" fill="#E6E6E6"/>
<path d="M20.724 38.15L24.2735 28.1383H34.1999C35.2595 28.1383 35.639 29.6726 34.724 30.2583L20.7229 38.15H20.724Z" fill="#E6E6E6"/>
</g>
<defs>
<filter id="filter0_f_3_536" x="0.153846" y="0.353614" width="41.9325" height="61.6157" filterUnits="userSpaceOnUse" color-interpolation-filters="sRGB">
<feFlood flood-opacity="0" result="BackgroundImageFix"/>
<feBlend mode="normal" in="SourceGraphic" in2="BackgroundImageFix" result="shape"/>
<feGaussianBlur stdDeviation="3.42308" result="effect1_foregroundBlur_3_536"/>
</filter>
</defs>
</svg>
