<svg width="26" height="25" viewBox="0 0 26 25" fill="none" xmlns="http://www.w3.org/2000/svg">
<g clip-path="url(#clip0_3_553)">
<path d="M13.0001 2.40695C16.275 2.40695 16.6628 2.42131 17.9508 2.47877C19.1478 2.53144 19.7942 2.73253 20.2251 2.90011C20.7948 3.12035 21.2066 3.38848 21.6327 3.81461C22.0636 4.24552 22.327 4.6525 22.5472 5.22226C22.7148 5.65318 22.9159 6.30434 22.9686 7.49654C23.026 8.78928 23.0404 9.17711 23.0404 12.4473C23.0404 15.7222 23.026 16.1101 22.9686 17.398C22.9159 18.595 22.7148 19.2414 22.5472 19.6723C22.327 20.2421 22.0589 20.6538 21.6327 21.0799C21.2018 21.5109 20.7948 21.7742 20.2251 21.9944C19.7942 22.162 19.143 22.3631 17.9508 22.4158C16.6581 22.4732 16.2702 22.4876 13.0001 22.4876C9.72511 22.4876 9.33729 22.4732 8.04933 22.4158C6.85234 22.3631 6.20597 22.162 5.77505 21.9944C5.20529 21.7742 4.79352 21.5061 4.3674 21.0799C3.93648 20.649 3.67314 20.2421 3.4529 19.6723C3.28532 19.2414 3.08423 18.5902 3.03156 17.398C2.9741 16.1053 2.95974 15.7174 2.95974 12.4473C2.95974 9.17232 2.9741 8.78449 3.03156 7.49654C3.08423 6.29955 3.28532 5.65318 3.4529 5.22226C3.67314 4.6525 3.94127 4.24073 4.3674 3.81461C4.79831 3.38369 5.20529 3.12035 5.77505 2.90011C6.20597 2.73253 6.85713 2.53144 8.04933 2.47877C9.33729 2.42131 9.72511 2.40695 13.0001 2.40695ZM13.0001 0.199707C9.67244 0.199707 9.25589 0.214071 7.94878 0.271526C6.64646 0.328982 5.75111 0.539651 4.97546 0.841292C4.1663 1.1573 3.48163 1.57385 2.80174 2.25852C2.11706 2.93841 1.70051 3.62309 1.3845 4.42746C1.08286 5.2079 0.872194 6.09846 0.814739 7.40078C0.757284 8.71268 0.74292 9.12923 0.74292 12.4569C0.74292 15.7845 0.757284 16.201 0.814739 17.5081C0.872194 18.8105 1.08286 19.7058 1.3845 20.4814C1.70051 21.2906 2.11706 21.9753 2.80174 22.6552C3.48163 23.3351 4.1663 23.7564 4.97068 24.0676C5.75111 24.3693 6.64167 24.5799 7.94399 24.6374C9.2511 24.6948 9.66765 24.7092 12.9953 24.7092C16.3229 24.7092 16.7395 24.6948 18.0466 24.6374C19.3489 24.5799 20.2442 24.3693 21.0199 24.0676C21.8243 23.7564 22.5089 23.3351 23.1888 22.6552C23.8687 21.9753 24.29 21.2906 24.6013 20.4862C24.9029 19.7058 25.1136 18.8152 25.171 17.5129C25.2285 16.2058 25.2428 15.7893 25.2428 12.4616C25.2428 9.13402 25.2285 8.71746 25.171 7.41035C25.1136 6.10803 24.9029 5.21269 24.6013 4.43704C24.2996 3.62309 23.8831 2.93841 23.1984 2.25852C22.5185 1.57864 21.8338 1.1573 21.0295 0.84608C20.249 0.544439 19.3585 0.33377 18.0561 0.276314C16.7442 0.214071 16.3277 0.199707 13.0001 0.199707Z" fill="url(#paint0_linear_3_553)"/>
<path d="M13 6.16064C9.52396 6.16064 6.70386 8.98074 6.70386 12.4568C6.70386 15.9328 9.52396 18.7529 13 18.7529C16.4761 18.7529 19.2962 15.9328 19.2962 12.4568C19.2962 8.98074 16.4761 6.16064 13 6.16064ZM13 16.5409C10.7449 16.5409 8.91589 14.7119 8.91589 12.4568C8.91589 10.2017 10.7449 8.37268 13 8.37268C15.2551 8.37268 17.0841 10.2017 17.0841 12.4568C17.0841 14.7119 15.2551 16.5409 13 16.5409Z" fill="url(#paint1_linear_3_553)"/>
<path d="M21.015 5.9118C21.015 6.72575 20.3543 7.3817 19.5451 7.3817C18.7311 7.3817 18.0752 6.72096 18.0752 5.9118C18.0752 5.09784 18.7359 4.44189 19.5451 4.44189C20.3543 4.44189 21.015 5.10263 21.015 5.9118Z" fill="url(#paint2_linear_3_553)"/>
</g>
<defs>
<linearGradient id="paint0_linear_3_553" x1="12.9929" y1="0.199707" x2="12.9929" y2="24.7092" gradientUnits="userSpaceOnUse">
<stop stop-color="#652AC6"/>
<stop offset="1" stop-color="#B14DFF"/>
</linearGradient>
<linearGradient id="paint1_linear_3_553" x1="13" y1="6.16064" x2="13" y2="18.7529" gradientUnits="userSpaceOnUse">
<stop stop-color="#652AC6"/>
<stop offset="1" stop-color="#B14DFF"/>
</linearGradient>
<linearGradient id="paint2_linear_3_553" x1="19.5451" y1="4.44189" x2="19.5451" y2="7.3817" gradientUnits="userSpaceOnUse">
<stop stop-color="#652AC6"/>
<stop offset="1" stop-color="#B14DFF"/>
</linearGradient>
<clipPath id="clip0_3_553">
<rect width="24.5143" height="24.5143" fill="white" transform="translate(0.74292 0.199707)"/>
</clipPath>
</defs>
</svg>
