<svg width="26" height="26" viewBox="0 0 26 26" fill="none" xmlns="http://www.w3.org/2000/svg">
<g clip-path="url(#clip0_3_555)">
<path d="M23.4426 0.714111H2.55276C1.55208 0.714111 0.74292 1.50412 0.74292 2.48086V23.4569C0.74292 24.4336 1.55208 25.2284 2.55276 25.2284H23.4426C24.4433 25.2284 25.2572 24.4336 25.2572 23.4616V2.48086C25.2572 1.50412 24.4433 0.714111 23.4426 0.714111ZM8.01581 21.6039H4.37697V9.90218H8.01581V21.6039ZM6.19639 8.30779C5.02813 8.30779 4.08491 7.36457 4.08491 6.2011C4.08491 5.03763 5.02813 4.0944 6.19639 4.0944C7.35986 4.0944 8.30309 5.03763 8.30309 6.2011C8.30309 7.35978 7.35986 8.30779 6.19639 8.30779ZM21.6327 21.6039H17.9987V15.9158C17.9987 14.5609 17.9747 12.8133 16.1074 12.8133C14.2162 12.8133 13.9289 14.2927 13.9289 15.8201V21.6039H10.2997V9.90218H13.7853V11.5014H13.8332C14.3167 10.5821 15.5042 9.61012 17.2709 9.61012C20.9528 9.61012 21.6327 12.0328 21.6327 15.1833V21.6039Z" fill="url(#paint0_linear_3_555)"/>
</g>
<defs>
<linearGradient id="paint0_linear_3_555" x1="13.0001" y1="0.714111" x2="13.0001" y2="25.2284" gradientUnits="userSpaceOnUse">
<stop stop-color="#652AC6"/>
<stop offset="1" stop-color="#B14DFF"/>
</linearGradient>
<clipPath id="clip0_3_555">
<rect width="24.5143" height="24.5143" fill="white" transform="translate(0.74292 0.714111)"/>
</clipPath>
</defs>
</svg>
