<svg width="52" height="24" viewBox="0 0 52 24" fill="none" xmlns="http://www.w3.org/2000/svg">
<path d="M2.51646 22.3816C2.62375 22.3816 2.71457 22.2933 2.73 22.1691L3.31323 17.5463L2.73173 12.8184C2.7144 12.6941 2.62375 12.6052 2.51646 12.6052C2.4064 12.6052 2.31263 12.696 2.29808 12.8184L1.78833 17.5463L2.29808 22.1675C2.31263 22.2916 2.4064 22.3816 2.51646 22.3816Z" fill="url(#paint0_linear_3_559)"/>
<path d="M0.589514 20.6239C0.694895 20.6239 0.780343 20.5419 0.795769 20.4194L1.2478 17.5467L0.795769 14.6203C0.78017 14.5016 0.694895 14.4158 0.589514 14.4158C0.479453 14.4158 0.394178 14.5016 0.378578 14.622L0.000732422 17.5469L0.378578 20.4187C0.394178 20.5402 0.479453 20.6239 0.589514 20.6239Z" fill="url(#paint1_linear_3_559)"/>
<path d="M4.81401 11.9365C4.80014 11.7862 4.69008 11.6765 4.5535 11.6765C4.41796 11.6765 4.30773 11.7862 4.29507 11.9365L3.80786 17.5444L4.29507 22.9476C4.30773 23.097 4.41796 23.2053 4.5535 23.2053C4.69008 23.2053 4.80014 23.097 4.81401 22.9476L5.36518 17.5444L4.81401 11.9365Z" fill="url(#paint2_linear_3_559)"/>
<path d="M6.60968 23.4237C6.76948 23.4237 6.89878 23.2921 6.91438 23.1202L7.43522 17.5468L6.91438 11.7824C6.89878 11.6092 6.76948 11.4792 6.60968 11.4792C6.44762 11.4792 6.31641 11.6094 6.30532 11.7833L5.84497 17.5468L6.30532 23.1202C6.31641 23.2923 6.44762 23.4237 6.60968 23.4237Z" fill="url(#paint3_linear_3_559)"/>
<path d="M8.68783 23.5137C8.87398 23.5137 9.02339 23.3647 9.03881 23.1652L9.03708 23.1666L9.52758 17.5464L9.03708 12.1981C9.02321 12.0019 8.87398 11.8506 8.68766 11.8506C8.49873 11.8506 8.3502 12.0019 8.33893 12.1997L7.90527 17.5465L8.33893 23.1653C8.35037 23.3647 8.49891 23.5137 8.68783 23.5137Z" fill="url(#paint4_linear_3_559)"/>
<path d="M11.639 17.5478L11.1788 8.85178C11.166 8.63132 10.9943 8.45557 10.7835 8.45557C10.5743 8.45557 10.403 8.63114 10.3902 8.85178L9.98291 17.5478L10.3902 23.1666C10.403 23.3881 10.5745 23.5614 10.7835 23.5614C10.9944 23.5614 11.166 23.3881 11.1788 23.1666V23.1682L11.639 17.5478Z" fill="url(#paint5_linear_3_559)"/>
<path d="M12.8921 23.5706C13.1242 23.5706 13.3167 23.378 13.3277 23.1322V23.1359L13.7578 17.5491L13.3277 6.86265C13.3167 6.61688 13.1242 6.42432 12.8921 6.42432C12.6546 6.42432 12.4638 6.61688 12.451 6.86265L12.0723 17.5491L12.4527 23.134C12.4638 23.378 12.6546 23.5706 12.8921 23.5706Z" fill="url(#paint6_linear_3_559)"/>
<path d="M15.0202 5.48413C14.7589 5.48413 14.5479 5.69871 14.5372 5.96927L14.1848 17.5475L14.5372 23.0737C14.5481 23.3429 14.7589 23.5561 15.0202 23.5561C15.2809 23.5561 15.4934 23.3446 15.5026 23.0729V23.0756L15.9025 17.5475L15.5026 5.96927C15.4934 5.69697 15.2807 5.48413 15.0202 5.48413Z" fill="url(#paint7_linear_3_559)"/>
<path d="M17.1663 23.5711C17.4533 23.5711 17.6819 23.3395 17.6927 23.0414V23.0447L18.0624 17.5515L17.6927 5.58437C17.6817 5.28729 17.4533 5.05469 17.1663 5.05469C16.8775 5.05469 16.6454 5.28729 16.6409 5.58437L16.3088 17.5515L16.6409 23.0447C16.6454 23.3395 16.8775 23.5711 17.1663 23.5711Z" fill="url(#paint8_linear_3_559)"/>
<path d="M19.3219 23.5657C19.6316 23.5657 19.883 23.3121 19.8923 22.9906V22.9956L20.2326 17.5526L19.8923 5.88979C19.883 5.56845 19.6316 5.31592 19.3219 5.31592C19.0099 5.31592 18.7586 5.56828 18.7494 5.88979L18.4504 17.5526L18.7513 22.993C18.7586 23.3121 19.0099 23.5657 19.3219 23.5657Z" fill="url(#paint9_linear_3_559)"/>
<path d="M22.4253 17.5497L22.1173 6.31205C22.1098 5.96541 21.8384 5.69312 21.5018 5.69312C21.1644 5.69312 20.8928 5.96541 20.8857 6.31431L20.6094 17.5497L20.8857 22.957C20.8928 23.3009 21.1642 23.5734 21.5018 23.5734C21.8382 23.5734 22.1098 23.3009 22.1173 22.952V22.957L22.4253 17.5497Z" fill="url(#paint10_linear_3_559)"/>
<path d="M23.6885 23.5845C24.0463 23.5845 24.3425 23.2869 24.348 22.921V22.9239L24.6276 17.5537L24.348 4.1812C24.3426 3.81392 24.0464 3.51685 23.6885 3.51685C23.331 3.51685 23.0356 3.81531 23.0283 4.1831L22.7798 17.5483L23.0283 22.9241C23.0356 23.2869 23.331 23.5845 23.6885 23.5845Z" fill="url(#paint11_linear_3_559)"/>
<path d="M25.8757 2.25732C25.4893 2.25732 25.176 2.5778 25.1695 2.96847L24.8806 17.5538L25.1713 22.8447C25.176 23.2304 25.4895 23.5498 25.8757 23.5498C26.2561 23.5498 26.5754 23.2302 26.5771 22.8383V22.8447L26.8926 17.5538L26.5771 2.96847C26.5754 2.57641 26.2561 2.25732 25.8757 2.25732Z" fill="url(#paint12_linear_3_559)"/>
<path d="M27.8766 23.5902C27.8922 23.5916 45.4902 23.5999 45.6033 23.5999C49.1365 23.5999 51.9996 20.7016 51.9996 17.1251C51.9996 13.5504 49.1363 10.6516 45.6033 10.6516C44.7264 10.6516 43.891 10.8308 43.1291 11.1555C42.6226 5.31947 37.7881 0.742676 31.8904 0.742676C30.4487 0.742676 29.0428 1.03074 27.8012 1.51726C27.3179 1.70618 27.1886 1.901 27.1848 2.2785V22.8241C27.1904 23.2211 27.493 23.5509 27.8766 23.5902Z" fill="url(#paint13_linear_3_559)"/>
<defs>
<linearGradient id="paint0_linear_3_559" x1="2.55078" y1="12.6052" x2="2.55078" y2="22.3816" gradientUnits="userSpaceOnUse">
<stop stop-color="#652AC6"/>
<stop offset="1" stop-color="#B14DFF"/>
</linearGradient>
<linearGradient id="paint1_linear_3_559" x1="0.624265" y1="14.4158" x2="0.624265" y2="20.6239" gradientUnits="userSpaceOnUse">
<stop stop-color="#652AC6"/>
<stop offset="1" stop-color="#B14DFF"/>
</linearGradient>
<linearGradient id="paint2_linear_3_559" x1="4.58652" y1="11.6765" x2="4.58652" y2="23.2053" gradientUnits="userSpaceOnUse">
<stop stop-color="#652AC6"/>
<stop offset="1" stop-color="#B14DFF"/>
</linearGradient>
<linearGradient id="paint3_linear_3_559" x1="6.64009" y1="11.4792" x2="6.64009" y2="23.4237" gradientUnits="userSpaceOnUse">
<stop stop-color="#652AC6"/>
<stop offset="1" stop-color="#B14DFF"/>
</linearGradient>
<linearGradient id="paint4_linear_3_559" x1="8.71643" y1="11.8506" x2="8.71643" y2="23.5137" gradientUnits="userSpaceOnUse">
<stop stop-color="#652AC6"/>
<stop offset="1" stop-color="#B14DFF"/>
</linearGradient>
<linearGradient id="paint5_linear_3_559" x1="10.811" y1="8.45557" x2="10.811" y2="23.5614" gradientUnits="userSpaceOnUse">
<stop stop-color="#652AC6"/>
<stop offset="1" stop-color="#B14DFF"/>
</linearGradient>
<linearGradient id="paint6_linear_3_559" x1="12.9151" y1="6.42432" x2="12.9151" y2="23.5706" gradientUnits="userSpaceOnUse">
<stop stop-color="#652AC6"/>
<stop offset="1" stop-color="#B14DFF"/>
</linearGradient>
<linearGradient id="paint7_linear_3_559" x1="15.0436" y1="5.48413" x2="15.0436" y2="23.5561" gradientUnits="userSpaceOnUse">
<stop stop-color="#652AC6"/>
<stop offset="1" stop-color="#B14DFF"/>
</linearGradient>
<linearGradient id="paint8_linear_3_559" x1="17.1856" y1="5.05469" x2="17.1856" y2="23.5711" gradientUnits="userSpaceOnUse">
<stop stop-color="#652AC6"/>
<stop offset="1" stop-color="#B14DFF"/>
</linearGradient>
<linearGradient id="paint9_linear_3_559" x1="19.3415" y1="5.31592" x2="19.3415" y2="23.5657" gradientUnits="userSpaceOnUse">
<stop stop-color="#652AC6"/>
<stop offset="1" stop-color="#B14DFF"/>
</linearGradient>
<linearGradient id="paint10_linear_3_559" x1="21.5173" y1="5.69312" x2="21.5173" y2="23.5734" gradientUnits="userSpaceOnUse">
<stop stop-color="#652AC6"/>
<stop offset="1" stop-color="#B14DFF"/>
</linearGradient>
<linearGradient id="paint11_linear_3_559" x1="23.7037" y1="3.51685" x2="23.7037" y2="23.5845" gradientUnits="userSpaceOnUse">
<stop stop-color="#652AC6"/>
<stop offset="1" stop-color="#B14DFF"/>
</linearGradient>
<linearGradient id="paint12_linear_3_559" x1="25.8866" y1="2.25732" x2="25.8866" y2="23.5498" gradientUnits="userSpaceOnUse">
<stop stop-color="#652AC6"/>
<stop offset="1" stop-color="#B14DFF"/>
</linearGradient>
<linearGradient id="paint13_linear_3_559" x1="39.5922" y1="0.742676" x2="39.5922" y2="23.5999" gradientUnits="userSpaceOnUse">
<stop stop-color="#652AC6"/>
<stop offset="1" stop-color="#B14DFF"/>
</linearGradient>
</defs>
</svg>
